<?xml version="1.0" standalone="no"?>
<!DOCTYPE svg PUBLIC "-//W3C//DTD SVG 20010904//EN"
 "http://www.w3.org/TR/2001/REC-SVG-20010904/DTD/svg10.dtd">
<svg version="1.0" xmlns="http://www.w3.org/2000/svg"
 width="559.000000pt" height="559.000000pt" viewBox="0 0 559.000000 559.000000"
 preserveAspectRatio="xMidYMid meet">
<metadata>
Created by potrace 1.14, written by Peter Selinger 2001-2017
</metadata>
<g transform="translate(0.000000,559.000000) scale(0.100000,-0.100000)"
fill="#000000" stroke="none">
<path d="M2585 5583 c-271 -29 -458 -67 -660 -134 -82 -27 -169 -58 -192 -69
-24 -11 -45 -20 -48 -20 -28 0 -421 -219 -490 -272 -5 -4 -44 -33 -85 -64
-446 -336 -789 -814 -968 -1349 -32 -95 -87 -313 -97 -380 -6 -44 -12 -85 -20
-130 -27 -156 -27 -593 0 -745 2 -14 7 -45 11 -70 3 -24 7 -47 9 -50 2 -3 6
-23 9 -45 17 -107 95 -380 132 -462 8 -17 14 -33 14 -36 0 -9 68 -154 117
-251 48 -95 139 -248 183 -306 14 -19 52 -69 83 -110 79 -105 127 -160 243
-275 185 -183 317 -287 534 -417 264 -159 642 -306 884 -342 21 -4 41 -8 45
-11 4 -2 28 -6 53 -9 26 -3 62 -8 80 -11 111 -15 175 -19 363 -19 183 -1 312
6 380 18 11 2 41 6 66 10 78 11 100 16 229 47 109 27 284 81 345 108 11 5 40
17 65 26 85 34 305 148 403 209 228 142 467 346 632 540 28 32 57 66 65 75 23
24 131 177 182 256 212 329 355 719 413 1125 27 190 28 535 1 740 -44 340
-182 750 -341 1014 -19 32 -35 60 -35 63 0 5 -141 217 -149 223 -4 3 -20 23
-36 46 -162 223 -465 495 -747 670 -345 213 -713 339 -1168 400 -50 6 -457 12
-505 7z"/>
</g>
</svg>
